<?xml version="1.0" standalone="no"?>
<!DOCTYPE svg PUBLIC "-//W3C//DTD SVG 20010904//EN"
 "http://www.w3.org/TR/2001/REC-SVG-20010904/DTD/svg10.dtd">
<svg version="1.0" xmlns="http://www.w3.org/2000/svg"
 width="42.000000pt" height="42.000000pt" viewBox="0 0 42.000000 42.000000"
 preserveAspectRatio="xMidYMid meet">

<g transform="translate(0.000000,42.000000) scale(0.100000,-0.100000)"
fill="#000000" stroke="none">
<path d="M140 407 c-50 -16 -116 -86 -130 -138 -56 -207 194 -355 345 -205 85
86 85 206 -1 293 -59 59 -132 76 -214 50z m141 -21 c41 -17 94 -71 108 -109
28 -72 5 -153 -58 -210 -117 -106 -311 -19 -311 141 0 54 14 90 53 131 57 59
136 77 208 47z"/>
<path d="M205 305 c-15 -14 -25 -36 -25 -52 0 -19 -14 -41 -46 -74 -31 -32
-45 -53 -41 -63 13 -35 38 -29 86 18 33 32 55 46 74 46 35 0 77 41 77 75 0 28
-21 33 -40 10 -15 -18 -40 -20 -40 -3 0 6 7 19 16 29 36 40 -22 54 -61 14z
m40 -15 c-31 -34 7 -76 46 -51 11 6 19 7 19 2 0 -19 -32 -41 -59 -41 -19 0
-40 -14 -71 -45 -40 -41 -70 -57 -70 -37 0 4 20 28 45 52 33 33 45 52 45 74 0
32 25 66 48 66 12 0 12 -3 -3 -20z"/>
</g>
</svg>
